<svg width="14" height="14" viewBox="0 0 14 14" fill="none" xmlns="http://www.w3.org/2000/svg">
<path d="M1.96875 1.99609C3.29948 0.665365 4.90365 0 6.78125 0C8.65885 0 10.2539 0.665365 11.5664 1.99609C12.8971 3.30859 13.5625 4.90365 13.5625 6.78125C13.5625 8.65885 12.8971 10.263 11.5664 11.5938C10.2539 12.9062 8.65885 13.5625 6.78125 13.5625C4.90365 13.5625 3.29948 12.9062 1.96875 11.5938C0.65625 10.263 0 8.65885 0 6.78125C0 4.90365 0.65625 3.30859 1.96875 1.99609ZM8.33984 9.57031C8.52214 9.69792 8.67708 9.67969 8.80469 9.51562L9.57031 8.44922C9.69792 8.26693 9.67969 8.11198 9.51562 7.98438L7.76562 6.72656V2.95312C7.76562 2.73438 7.65625 2.625 7.4375 2.625H6.125C5.90625 2.625 5.79688 2.73438 5.79688 2.95312V7.54688C5.79688 7.65625 5.84245 7.7474 5.93359 7.82031L8.33984 9.57031Z" fill="black"/>
</svg>
