<svg width="38" height="38" viewBox="0 0 38 38" fill="none" xmlns="http://www.w3.org/2000/svg">
<path d="M36.86 6.33334H34.0733V4.94C34.0733 4.77111 34.01 4.62334 33.8833 4.49667C33.7566 4.37 33.6089 4.30667 33.44 4.30667C30.6533 4.30667 28.3733 4.43334 26.6 4.68667C25.1644 4.85556 23.5177 5.19334 21.66 5.7V5.57334C21.66 4.81334 21.4066 4.18 20.9 3.67334C20.3933 3.16667 19.76 2.91334 19 2.91334C18.24 2.91334 17.6066 3.16667 17.1 3.67334C16.5933 4.18 16.34 4.81334 16.34 5.57334V5.7C14.4822 5.19334 12.8355 4.85556 11.4 4.68667C9.62663 4.43334 7.34663 4.30667 4.55997 4.30667C4.39108 4.30667 4.2433 4.37 4.11663 4.49667C3.98997 4.62334 3.92663 4.77111 3.92663 4.94V6.33334H1.13997C0.971079 6.33334 0.844412 6.39667 0.759967 6.52334C0.675523 6.65 0.633301 6.79778 0.633301 6.96667V32.5533C0.633301 32.7222 0.675523 32.87 0.759967 32.9967C0.844412 33.1233 0.971079 33.1867 1.13997 33.1867H15.8333C15.8333 33.7778 16.0233 34.2422 16.4033 34.58C16.7833 34.9178 17.2266 35.0867 17.7333 35.0867H20.2666C20.8577 35.0867 21.3222 34.9178 21.66 34.58C21.9977 34.2422 22.1666 33.7778 22.1666 33.1867H36.86C37.0289 33.1867 37.1555 33.1233 37.24 32.9967C37.3244 32.87 37.3666 32.7222 37.3666 32.5533V6.96667C37.3666 6.79778 37.3244 6.65 37.24 6.52334C37.1555 6.39667 37.0289 6.33334 36.86 6.33334ZM32.9333 5.44667V29.1333C27.1911 29.1333 22.7577 29.8933 19.6333 31.4133V23.56H31.16C31.4133 23.56 31.5822 23.4967 31.6666 23.37C31.7511 23.2433 31.7933 23.0956 31.7933 22.9267C31.7089 21.9978 31.4133 21.1956 30.9066 20.52C30.4 19.8444 29.7666 19.3378 29.0066 19C29.5133 18.4933 29.7666 17.8811 29.7666 17.1633C29.7666 16.4456 29.5133 15.8122 29.0066 15.2633C28.5 14.7144 27.8666 14.44 27.1066 14.44L26.6 14.5667C26.0933 13.9756 25.5022 13.5533 24.8266 13.3C25.4177 12.7089 25.7133 12.0544 25.7133 11.3367C25.7133 10.6189 25.4389 9.98556 24.89 9.43667C24.3411 8.88778 23.6866 8.61334 22.9266 8.61334L22.5466 8.74C22.1244 8.14889 21.5755 7.72667 20.9 7.47334L21.28 6.96667C23.3066 6.46 24.9533 6.08 26.22 5.82667C27.9933 5.65778 30.2311 5.53111 32.9333 5.44667ZM14.6933 21.0267C14.1866 20.0978 13.4689 19.4222 12.54 19C12.8777 18.6622 13.0889 18.24 13.1733 17.7333H16.2133C16.2977 18.24 16.5511 18.6622 16.9733 19C15.96 19.4222 15.2 20.0978 14.6933 21.0267ZM9.11997 17.1C9.11997 16.6778 9.26775 16.34 9.5633 16.0867C9.85886 15.8333 10.2177 15.7067 10.64 15.7067C11.0622 15.7067 11.4211 15.8333 11.7166 16.0867C12.0122 16.34 12.16 16.6778 12.16 17.1C12.16 17.5222 12.0122 17.8811 11.7166 18.1767C11.4211 18.4722 11.0622 18.62 10.64 18.62C10.2177 18.62 9.85886 18.4722 9.5633 18.1767C9.26775 17.8811 9.11997 17.5222 9.11997 17.1ZM13.1733 11.4C13.1733 10.9778 13.3211 10.6189 13.6166 10.3233C13.9122 10.0278 14.2711 9.88 14.6933 9.88C15.1155 9.88 15.4744 10.0278 15.77 10.3233C16.0655 10.6189 16.2133 10.9778 16.2133 11.4C16.2133 11.8222 16.0655 12.16 15.77 12.4133C15.4744 12.6667 15.1155 12.7933 14.6933 12.7933C14.2711 12.7933 13.9122 12.6667 13.6166 12.4133C13.3211 12.16 13.1733 11.8222 13.1733 11.4ZM19 8.23334C19.9289 8.23334 20.7311 8.52889 21.4066 9.12C20.8155 9.54222 20.4777 10.0911 20.3933 10.7667H17.3533C17.1844 10.1756 16.8889 9.66889 16.4666 9.24667C17.1422 8.57112 17.9866 8.23334 19 8.23334ZM22.9266 21.0267C22.42 20.0978 21.7022 19.4222 20.7733 19C21.1111 18.6622 21.3644 18.24 21.5333 17.7333H24.4466C24.6155 18.24 24.8689 18.6622 25.2066 19C24.1933 19.4222 23.4333 20.0978 22.9266 21.0267ZM18.8733 18.62C18.4511 18.62 18.0922 18.4722 17.7966 18.1767C17.5011 17.8811 17.3533 17.5222 17.3533 17.1C17.3533 16.6778 17.5011 16.34 17.7966 16.0867C18.0922 15.8333 18.4511 15.7067 18.8733 15.7067C19.2955 15.7067 19.6544 15.8333 19.95 16.0867C20.2455 16.34 20.3933 16.6778 20.3933 17.1C20.3933 17.5222 20.2455 17.8811 19.95 18.1767C19.6544 18.4722 19.2955 18.62 18.8733 18.62ZM16.5933 13.3C17.0155 12.8778 17.2689 12.4133 17.3533 11.9067H18.3666V14.44V14.5667C17.86 13.9756 17.2689 13.5533 16.5933 13.3ZM20.3933 11.9067C20.4777 12.4133 20.6889 12.8778 21.0266 13.3C20.52 13.5533 20.0555 13.8911 19.6333 14.3133V11.9067H20.3933ZM27.1066 19.8867C27.8666 19.8867 28.5633 20.1189 29.1966 20.5833C29.83 21.0478 30.2733 21.6178 30.5266 22.2933H23.6866C23.94 21.6178 24.3833 21.0478 25.0166 20.5833C25.65 20.1189 26.3466 19.8867 27.1066 19.8867ZM27.1066 18.62C26.6844 18.62 26.3255 18.4722 26.03 18.1767C25.7344 17.8811 25.5866 17.5222 25.5866 17.1C25.5866 16.6778 25.7344 16.34 26.03 16.0867C26.3255 15.8333 26.6844 15.7067 27.1066 15.7067C27.5289 15.7067 27.8877 15.8333 28.1833 16.0867C28.4789 16.34 28.6266 16.6778 28.6266 17.1C28.6266 17.5222 28.4789 17.8811 28.1833 18.1767C27.8877 18.4722 27.5289 18.62 27.1066 18.62ZM24.4466 16.5933H21.5333C21.3644 15.9178 21.0266 15.4111 20.52 15.0733C21.1955 14.3978 22.0189 14.06 22.99 14.06C23.9611 14.06 24.7844 14.3978 25.46 15.0733C24.9533 15.4111 24.6155 15.9178 24.4466 16.5933ZM22.9266 12.7933C22.5044 12.7933 22.1455 12.6667 21.85 12.4133C21.5544 12.16 21.4066 11.8222 21.4066 11.4C21.4066 10.9778 21.5544 10.6189 21.85 10.3233C22.1455 10.0278 22.5044 9.88 22.9266 9.88C23.3489 9.88 23.7077 10.0278 24.0033 10.3233C24.2989 10.6189 24.4466 10.9778 24.4466 11.4C24.4466 11.8222 24.2989 12.16 24.0033 12.4133C23.7077 12.6667 23.3489 12.7933 22.9266 12.7933ZM17.2266 15.0733C16.72 15.4111 16.3822 15.9178 16.2133 16.5933H13.1733C13.0889 15.9178 12.7933 15.4111 12.2866 15.0733C12.9622 14.3978 13.7855 14.06 14.7566 14.06C15.7277 14.06 16.5511 14.3978 17.2266 15.0733ZM10.64 19.8867C11.4 19.8867 12.0966 20.1189 12.73 20.5833C13.3633 21.0478 13.8066 21.6178 14.06 22.2933H7.21997C7.4733 21.6178 7.89552 21.0478 8.48663 20.5833C9.07775 20.1189 9.79552 19.8867 10.64 19.8867ZM18.8733 19.8867C19.6333 19.8867 20.33 20.1189 20.9633 20.5833C21.5966 21.0478 22.04 21.6178 22.2933 22.2933H15.4533C15.7066 21.6178 16.1289 21.0478 16.72 20.5833C17.3111 20.1189 18.0289 19.8867 18.8733 19.8867ZM19 4.05334C19.4222 4.05334 19.7811 4.20111 20.0766 4.49667C20.3722 4.79223 20.52 5.15112 20.52 5.57334C20.52 5.99556 20.3722 6.35445 20.0766 6.65C19.7811 6.94556 19.4222 7.09334 19 7.09334C18.5777 7.09334 18.2189 6.94556 17.9233 6.65C17.6277 6.35445 17.48 5.99556 17.48 5.57334C17.48 5.15112 17.6277 4.79223 17.9233 4.49667C18.2189 4.20111 18.5777 4.05334 19 4.05334ZM5.06663 5.44667C7.76886 5.53111 10.0066 5.65778 11.78 5.82667C13.0466 6.08 14.6933 6.46 16.72 6.96667L17.1 7.47334C16.4244 7.72667 15.8333 8.14889 15.3266 8.74C15.1577 8.65556 14.9466 8.61334 14.6933 8.61334C13.9333 8.61334 13.3 8.88778 12.7933 9.43667C12.2866 9.98556 12.0333 10.6189 12.0333 11.3367C12.0333 12.0544 12.2866 12.7089 12.7933 13.3C12.1177 13.5533 11.5689 13.9756 11.1466 14.5667L10.64 14.44C9.87997 14.44 9.22552 14.7144 8.67663 15.2633C8.12775 15.8122 7.8533 16.4456 7.8533 17.1633C7.8533 17.8811 8.14886 18.4933 8.73997 19C7.97997 19.3378 7.34663 19.8444 6.83997 20.52C6.3333 21.1956 5.99552 21.9978 5.82663 22.9267C5.82663 23.0956 5.88997 23.2433 6.01663 23.37C6.1433 23.4967 6.29108 23.56 6.45997 23.56H18.3666V31.4133C15.2422 29.8933 10.8089 29.1333 5.06663 29.1333V5.44667ZM36.2266 32.0467H21.66C21.4911 32.0467 21.3433 32.11 21.2166 32.2367C21.09 32.3633 21.0266 32.4689 21.0266 32.5533V33.1867C21.0266 33.44 20.9633 33.63 20.8366 33.7567C20.71 33.8833 20.52 33.9467 20.2666 33.9467H17.7333C17.5644 33.9467 17.3955 33.8833 17.2266 33.7567C17.0577 33.63 16.9733 33.44 16.9733 33.1867V32.5533C16.9733 32.4689 16.91 32.3633 16.7833 32.2367C16.6566 32.11 16.5511 32.0467 16.4666 32.0467H1.7733V7.6H3.92663V29.64C3.92663 29.8089 3.98997 29.9567 4.11663 30.0833C4.2433 30.21 4.39108 30.2733 4.55997 30.2733C10.8933 30.2733 15.6222 31.16 18.7466 32.9333C18.8311 33.0178 18.9155 33.06 19 33.06C19.0844 33.06 19.1689 33.0178 19.2533 32.9333C22.3777 31.16 27.1066 30.2733 33.44 30.2733C33.6089 30.2733 33.7566 30.21 33.8833 30.0833C34.01 29.9567 34.0733 29.8089 34.0733 29.64V7.6H36.2266V32.0467ZM31.0333 25.5867C31.0333 25.7556 30.97 25.9033 30.8433 26.03C30.7166 26.1567 30.5689 26.22 30.4 26.22C27.1911 26.3889 24.4889 26.8111 22.2933 27.4867H22.04C21.7866 27.4867 21.6177 27.3811 21.5333 27.17C21.4489 26.9589 21.4489 26.79 21.5333 26.6633C21.6177 26.5367 21.7444 26.4311 21.9133 26.3467C24.2777 25.6711 27.1066 25.2489 30.4 25.08C30.5689 25.08 30.6955 25.1222 30.78 25.2067C30.8644 25.2911 30.9489 25.4178 31.0333 25.5867ZM16.4666 27.1067C16.3822 27.36 16.2133 27.4867 15.96 27.4867H15.7066C13.5111 26.8111 10.8089 26.3889 7.59997 26.22C7.43108 26.22 7.2833 26.1567 7.15663 26.03C7.02997 25.9033 6.98775 25.7556 7.02997 25.5867C7.07219 25.4178 7.13552 25.2911 7.21997 25.2067C7.30441 25.1222 7.43108 25.08 7.59997 25.08C10.8933 25.2489 13.7222 25.6711 16.0866 26.3467C16.2555 26.4311 16.3822 26.5367 16.4666 26.6633C16.5511 26.79 16.5511 26.9378 16.4666 27.1067Z" fill="#0E2A46"/>
</svg>
