<svg width="38" height="38" viewBox="0 0 38 38" fill="none" xmlns="http://www.w3.org/2000/svg">
<path d="M37.2402 20.52L32.0469 11.4C31.878 11.1467 31.688 10.9989 31.4769 10.9567C31.2658 10.9145 31.0758 10.9356 30.9069 11.02L29.0069 12.16V5.06671L25.2069 0.760036L24.9535 0.633373H10.1335C9.79575 0.633373 9.52131 0.738926 9.3102 0.950039C9.09909 1.16115 8.99353 1.39337 8.99353 1.64671V13.4267L7.09353 12.2867C6.92464 12.2023 6.73464 12.1812 6.52353 12.2234C6.31242 12.2656 6.12242 12.3712 5.95353 12.54L0.760197 21.7867C0.591309 21.9556 0.549086 22.1667 0.633531 22.42C0.717975 22.6734 0.844642 22.8423 1.01353 22.9267L5.3202 25.46C5.99575 26.0512 6.58686 26.7267 7.09353 27.4867L5.7002 30.02C5.44686 30.4423 5.34131 30.9067 5.38353 31.4134C5.42575 31.92 5.61575 32.3423 5.95353 32.68C6.29131 33.0178 6.69242 33.2289 7.15686 33.3134C7.62131 33.3978 8.10686 33.3556 8.61353 33.1867C8.78242 33.7778 9.18353 34.2212 9.81686 34.5167C10.4502 34.8123 11.0624 34.7912 11.6535 34.4534C11.8224 35.0445 12.1813 35.4667 12.7302 35.72C13.2791 35.9734 13.8069 36.0578 14.3135 35.9734C14.5669 35.8889 14.8202 35.7623 15.0735 35.5934C15.2424 36.0156 15.5169 36.3534 15.8969 36.6067C16.2769 36.86 16.678 36.9867 17.1002 36.9867C17.9446 36.9867 18.578 36.6067 19.0002 35.8467L21.0269 37.1134C21.4491 37.3667 21.9135 37.4723 22.4202 37.43C22.9269 37.3878 23.3913 37.1978 23.8135 36.86C24.2358 36.5223 24.5313 36.1212 24.7002 35.6567C24.8691 35.1923 24.8691 34.7067 24.7002 34.2V33.9467H24.9535C25.6291 33.7778 26.1358 33.3767 26.4735 32.7434C26.8113 32.11 26.8958 31.4556 26.7269 30.78L26.6002 30.6534C27.3602 30.4845 27.9513 30.0623 28.3735 29.3867C28.7958 28.7112 28.8802 27.9934 28.6269 27.2334C29.3869 27.0645 29.9358 26.6423 30.2735 25.9667L30.5269 25.7134C30.7802 25.5445 31.118 25.27 31.5402 24.89C31.9624 24.51 32.2158 24.32 32.3002 24.32C32.3846 24.32 32.4691 24.2778 32.5535 24.1934L36.9869 21.66C37.1558 21.5756 37.2824 21.4278 37.3669 21.2167C37.4513 21.0056 37.4091 20.7734 37.2402 20.52ZM25.4602 2.66004L27.1069 4.43337H25.4602V2.66004ZM10.1335 1.77337H24.1935V5.06671C24.1935 5.2356 24.2569 5.38337 24.3835 5.51004C24.5102 5.63671 24.658 5.70004 24.8269 5.70004H27.8669V12.7934L26.6002 13.5534C25.3335 13.4689 23.9824 13.5534 22.5469 13.8067C20.9424 13.9756 19.6335 14.3134 18.6202 14.82L17.9869 15.0734C17.6491 15.1578 17.3535 15.2845 17.1002 15.4534C14.9891 14.6934 13.0891 14.44 11.4002 14.6934L10.1335 14.06V1.77337ZM5.44686 24.0667L1.9002 22.04L6.8402 13.5534L10.3869 15.58L5.44686 24.0667ZM8.7402 31.2867L8.48686 31.6667C8.40242 31.92 8.21242 32.0889 7.91686 32.1734C7.62131 32.2578 7.34686 32.2156 7.09353 32.0467C6.8402 31.8778 6.67131 31.6667 6.58686 31.4134C6.50242 31.16 6.54464 30.9067 6.71353 30.6534L8.86686 26.8534C8.95131 26.6 9.14131 26.4312 9.43686 26.3467C9.73242 26.2623 10.0069 26.3045 10.2602 26.4734C10.5135 26.6423 10.6824 26.8745 10.7669 27.17C10.8513 27.4656 10.8091 27.74 10.6402 27.9934L8.7402 31.2867ZM11.7802 32.68L11.6535 32.9334C11.4846 33.1867 11.2524 33.3556 10.9569 33.44C10.6613 33.5245 10.3869 33.5034 10.1335 33.3767C9.8802 33.25 9.71131 33.0389 9.62686 32.7434C9.54242 32.4478 9.58464 32.1734 9.75353 31.92L11.6535 28.5C11.8224 28.2467 12.0546 28.0989 12.3502 28.0567C12.6458 28.0145 12.9202 28.0567 13.1735 28.1834C13.4269 28.31 13.5958 28.5212 13.6802 28.8167C13.7646 29.1123 13.7224 29.3867 13.5535 29.64L11.7802 32.68ZM14.6935 34.3267C14.5246 34.58 14.3135 34.7489 14.0602 34.8334C13.8069 34.9178 13.5324 34.8756 13.2369 34.7067C12.9413 34.5378 12.7724 34.3056 12.7302 34.01C12.688 33.7145 12.7091 33.44 12.7935 33.1867L14.5669 30.2734C14.7358 30.02 14.968 29.8512 15.2635 29.7667C15.5591 29.6823 15.8335 29.7034 16.0869 29.83C16.3402 29.9567 16.488 30.1678 16.5302 30.4634C16.5724 30.7589 16.5513 31.0334 16.4669 31.2867L15.0735 33.5667L14.6935 34.3267ZM16.5935 35.5934C16.3402 35.4245 16.1713 35.2134 16.0869 34.96C16.0024 34.7067 16.0024 34.4534 16.0869 34.2L17.4802 31.92C17.6491 31.6667 17.8602 31.4978 18.1135 31.4134C18.3669 31.3289 18.6202 31.35 18.8735 31.4767C19.1269 31.6034 19.2958 31.8145 19.3802 32.11C19.4646 32.4056 19.4224 32.68 19.2535 32.9334L17.9869 35.2134C17.818 35.4667 17.6069 35.6356 17.3535 35.72C17.1002 35.8045 16.8469 35.7623 16.5935 35.5934ZM23.4335 35.5934C23.2646 35.8467 22.9902 36.0367 22.6102 36.1634C22.2302 36.29 21.9135 36.2689 21.6602 36.1L19.6335 34.8334L20.3935 33.5667C20.5624 33.1445 20.6469 32.7223 20.6469 32.3L22.9269 33.6934C23.2646 33.8623 23.4758 34.1367 23.5602 34.5167C23.6446 34.8967 23.6024 35.2556 23.4335 35.5934ZM29.2602 25.46C29.0913 25.7978 28.838 26.0089 28.5002 26.0934C28.1624 26.1778 27.8246 26.1356 27.4869 25.9667L22.5469 23.0534C22.2935 22.9689 22.0824 22.9689 21.9135 23.0534C21.7446 23.1378 21.6602 23.3067 21.6602 23.56C21.6602 23.8134 21.7446 23.9823 21.9135 24.0667L26.8535 26.98C27.1913 27.1489 27.4024 27.4023 27.4869 27.74C27.5713 28.0778 27.5291 28.4156 27.3602 28.7534C27.1913 29.0912 26.9169 29.3023 26.5369 29.3867C26.1569 29.4712 25.798 29.4289 25.4602 29.26L21.6602 27.1067C21.4913 27.0223 21.3013 27.0223 21.0902 27.1067C20.8791 27.1912 20.7735 27.36 20.7735 27.6134C20.7735 27.8667 20.9002 28.0356 21.1535 28.12L24.9535 30.2734C25.2069 30.5267 25.3969 30.8223 25.5235 31.16C25.6502 31.4978 25.608 31.8356 25.3969 32.1734C25.1858 32.5112 24.9113 32.7223 24.5735 32.8067C24.2358 32.8912 23.898 32.8489 23.5602 32.68L21.0269 31.16C20.7735 31.0756 20.5202 31.1178 20.2669 31.2867C20.0135 30.8645 19.6546 30.5478 19.1902 30.3367C18.7258 30.1256 18.2402 30.1045 17.7335 30.2734V30.1467C17.5646 29.5556 17.2058 29.1123 16.6569 28.8167C16.108 28.5212 15.538 28.4578 14.9469 28.6267H14.8202V28.5C14.6513 27.9089 14.2924 27.4656 13.7435 27.17C13.1946 26.8745 12.6246 26.7689 12.0335 26.8534L11.9069 26.98C11.8224 26.4734 11.6113 26.0723 11.2735 25.7767C10.9358 25.4812 10.5346 25.2912 10.0702 25.2067C9.60575 25.1223 9.16242 25.1856 8.7402 25.3967C8.31798 25.6078 7.9802 25.9245 7.72686 26.3467C7.38909 25.7556 6.96686 25.2489 6.4602 24.8267L11.6535 15.8334C13.0046 15.6645 14.5669 15.8756 16.3402 16.4667L15.3269 20.14C15.158 20.6467 15.1158 21.1534 15.2002 21.66C15.2846 22.1667 15.4958 22.6523 15.8335 23.1167C16.1713 23.5812 16.5091 23.8134 16.8469 23.8134C17.1846 23.8134 17.5224 23.56 17.8602 23.0534L17.9869 22.9267C18.4935 22.2512 18.9158 21.5334 19.2535 20.7734C19.8446 19.8445 20.2246 19.3378 20.3935 19.2534L21.1535 19.1267L28.7535 23.56C29.0913 23.7289 29.3235 24.0034 29.4502 24.3834C29.5769 24.7634 29.5135 25.1223 29.2602 25.46ZM30.6535 24.1934C30.4002 23.4334 29.978 22.8845 29.3869 22.5467L21.5335 17.9867C21.3646 17.9023 21.1958 17.86 21.0269 17.86L20.1402 18.1134C19.8024 18.1978 19.5069 18.4089 19.2535 18.7467C19.0002 19.0845 18.6624 19.5912 18.2402 20.2667C17.9024 20.9423 17.4802 21.6178 16.9735 22.2934L16.8469 22.5467C16.5935 22.1245 16.4458 21.7656 16.4035 21.47C16.3613 21.1745 16.3824 20.8578 16.4669 20.52L17.3535 17.1C17.438 16.9312 17.5224 16.7623 17.6069 16.5934H17.7335C17.9024 16.4245 18.0713 16.2978 18.2402 16.2134L19.1269 15.96C20.0558 15.4534 21.2802 15.1156 22.8002 14.9467C24.0669 14.7778 25.2913 14.6934 26.4735 14.6934L31.4135 23.4334L30.6535 24.1934ZM32.5535 22.9267L27.6135 14.3134L31.1602 12.2867L36.1002 20.9L32.5535 22.9267ZM15.5802 11.6534C15.7491 11.6534 15.8758 11.59 15.9602 11.4634C16.0446 11.3367 16.0869 11.1889 16.0869 11.02V7.09337C16.0869 6.92448 16.0446 6.77671 15.9602 6.65004C15.8758 6.52337 15.7491 6.46004 15.5802 6.46004H11.5269C11.358 6.46004 11.2313 6.52337 11.1469 6.65004C11.0624 6.77671 11.0202 6.92448 11.0202 7.09337V11.02C11.0202 11.1889 11.0624 11.3367 11.1469 11.4634C11.2313 11.59 11.358 11.6534 11.5269 11.6534H15.5802ZM12.1602 7.60004H14.9469V10.3867H12.1602V7.60004ZM14.6935 8.86671L13.8069 10.0067C13.638 10.0912 13.4691 10.1334 13.3002 10.1334C13.1313 10.1334 13.0046 10.0912 12.9202 10.0067L12.4135 9.50004C12.3291 9.4156 12.2869 9.28893 12.2869 9.12004C12.2869 8.95115 12.3502 8.80337 12.4769 8.67671C12.6035 8.55004 12.7513 8.48671 12.9202 8.48671C13.0891 8.48671 13.2158 8.52893 13.3002 8.61337V8.74004L13.8069 8.10671C13.9758 7.93782 14.1658 7.87449 14.3769 7.91671C14.588 7.95893 14.7358 8.0856 14.8202 8.29671C14.9046 8.50782 14.8624 8.69782 14.6935 8.86671ZM17.8602 11.2734C17.8602 11.1045 17.9235 10.9567 18.0502 10.83C18.1769 10.7034 18.3246 10.64 18.4935 10.64H26.4735C26.6424 10.64 26.7691 10.7034 26.8535 10.83C26.938 10.9567 26.9802 11.1045 26.9802 11.2734C26.9802 11.4423 26.938 11.59 26.8535 11.7167C26.7691 11.8434 26.6424 11.9067 26.4735 11.9067H18.4935C18.3246 11.9067 18.1769 11.8434 18.0502 11.7167C17.9235 11.59 17.8602 11.4423 17.8602 11.2734ZM17.8602 7.09337C17.8602 6.92448 17.9235 6.77671 18.0502 6.65004C18.1769 6.52337 18.3246 6.46004 18.4935 6.46004H22.1669C22.3358 6.46004 22.4835 6.52337 22.6102 6.65004C22.7369 6.77671 22.8002 6.92448 22.8002 7.09337C22.8002 7.26226 22.7369 7.38893 22.6102 7.47337C22.4835 7.55782 22.3358 7.60004 22.1669 7.60004H18.4935C18.3246 7.60004 18.1769 7.55782 18.0502 7.47337C17.9235 7.38893 17.8602 7.26226 17.8602 7.09337ZM17.8602 9.12004C17.8602 8.95115 17.9235 8.82448 18.0502 8.74004C18.1769 8.6556 18.3246 8.61337 18.4935 8.61337H23.6869C23.8558 8.61337 24.0035 8.6556 24.1302 8.74004C24.2569 8.82448 24.3202 8.95115 24.3202 9.12004C24.3202 9.28893 24.2569 9.43671 24.1302 9.56337C24.0035 9.69004 23.8558 9.75337 23.6869 9.75337H18.4935C18.3246 9.75337 18.1769 9.69004 18.0502 9.56337C17.9235 9.43671 17.8602 9.28893 17.8602 9.12004Z" fill="#0E2A46"/>
</svg>
