<svg width="14" height="50" viewBox="0 0 14 50" fill="none" xmlns="http://www.w3.org/2000/svg">
<mask id="mask0_1_45" style="mask-type:luminance" maskUnits="userSpaceOnUse" x="0" y="18" width="14" height="14">
<path d="M13.7891 18.9702H0.789062V31.9702H13.7891V18.9702Z" fill="white"/>
</mask>
<g mask="url(#mask0_1_45)">
<path d="M10.2701 18.9702H4.30804C2.36764 18.9702 0.789062 20.5488 0.789062 22.4892V28.4513C0.789062 30.3916 2.36764 31.9702 4.30804 31.9702H10.2702C12.2105 31.9702 13.789 30.3916 13.789 28.4513V22.4892C13.789 20.5488 12.2105 18.9702 10.2701 18.9702ZM13.0269 28.4513C13.0269 29.9714 11.7902 31.2081 10.2701 31.2081H4.30804C2.78788 31.2081 1.55118 29.9714 1.55118 28.4513V22.4892C1.55118 20.969 2.78788 19.7323 4.30804 19.7323H10.2702C11.7902 19.7323 13.0269 20.969 13.0269 22.4892V28.4513Z" fill="#17254E"/>
<path d="M7.28895 21.9155C5.32891 21.9155 3.73438 23.5101 3.73438 25.4701C3.73438 27.4301 5.32891 29.0247 7.28895 29.0247C9.24898 29.0247 10.8435 27.4301 10.8435 25.4701C10.8435 23.5101 9.24898 21.9155 7.28895 21.9155ZM7.28895 28.2626C5.74925 28.2626 4.49648 27.0099 4.49648 25.4701C4.49648 23.9304 5.74925 22.6776 7.28895 22.6776C8.82875 22.6776 10.0814 23.9304 10.0814 25.4701C10.0814 27.0099 8.82875 28.2626 7.28895 28.2626Z" fill="#17254E"/>
<path d="M10.9288 20.6528C10.3495 20.6528 9.87842 21.124 9.87842 21.7032C9.87842 22.2824 10.3495 22.7536 10.9288 22.7536C11.508 22.7536 11.9792 22.2824 11.9792 21.7032C11.9792 21.1239 11.508 20.6528 10.9288 20.6528ZM10.9288 21.9914C10.7699 21.9914 10.6405 21.8621 10.6405 21.7032C10.6405 21.5442 10.7699 21.4149 10.9288 21.4149C11.0877 21.4149 11.2171 21.5442 11.2171 21.7032C11.2171 21.8621 11.0877 21.9914 10.9288 21.9914Z" fill="#17254E"/>
</g>
</svg>
