<svg width="14" height="50" viewBox="0 0 14 50" fill="none" xmlns="http://www.w3.org/2000/svg">
<path d="M2.57381 18.9702C2.08907 18.9702 1.64838 19.1465 1.31788 19.477C0.965343 19.8295 0.789062 20.2702 0.789062 20.7329C0.789062 21.2176 0.987368 21.6583 1.31788 21.9888C1.64838 22.3193 2.1111 22.5177 2.55178 22.4956C2.55178 22.4956 2.57381 22.4956 2.59586 22.4956C3.03654 22.4956 3.45518 22.3193 3.78569 21.9888C4.1162 21.6583 4.3145 21.2176 4.3145 20.7329C4.33653 20.2702 4.13822 19.8295 3.80771 19.499C3.4772 19.1465 3.03652 18.9702 2.57381 18.9702ZM3.47721 21.6804C3.23482 21.9228 2.90432 22.077 2.55178 22.055C2.22127 22.055 1.86874 21.9228 1.62636 21.6804C1.36195 21.438 1.22975 21.0855 1.22975 20.7329C1.22975 20.3804 1.36195 20.0499 1.62636 19.7855C1.86874 19.5431 2.19925 19.4109 2.57381 19.4109C2.90432 19.4109 3.23482 19.5431 3.47721 19.7855C3.74161 20.0499 3.87381 20.3804 3.87381 20.7329C3.87381 21.0855 3.74161 21.438 3.47721 21.6804Z" fill="#17254E"/>
<path d="M3.4335 22.936H1.64876C1.29622 22.936 1.00977 23.2225 1.00977 23.5971V31.3089C1.00977 31.6614 1.31825 31.9699 1.67078 31.9699H3.4335C3.78604 31.9699 4.09452 31.6614 4.09452 31.3309V23.5971C4.09452 23.2445 3.78604 22.936 3.4335 22.936ZM3.65383 31.3309C3.65383 31.4411 3.54365 31.5292 3.4335 31.5292H1.67078C1.5606 31.5292 1.45045 31.4191 1.45045 31.3089V23.5971C1.45045 23.4869 1.53858 23.3767 1.64876 23.3767H3.4335C3.54368 23.3767 3.65383 23.4869 3.65383 23.5971V31.3309Z" fill="#17254E"/>
<path d="M10.9247 22.7163H10.462C9.60264 22.7163 8.78739 23.0909 8.25858 23.6858V23.3773C8.25858 23.157 8.03825 22.9366 7.81789 22.9366H5.61451C5.41621 22.9366 5.17383 23.1129 5.17383 23.3553V31.5739C5.17383 31.8163 5.41621 31.9705 5.61451 31.9705H8.03825C8.23656 31.9705 8.47894 31.8163 8.47894 31.5739V26.8146C8.47894 26.0875 9.00775 25.5146 9.69079 25.5146C10.0433 25.5146 10.3738 25.6468 10.6162 25.8892C10.8365 26.0875 10.9247 26.396 10.9247 26.7926V31.5298C10.9247 31.7502 11.145 31.9705 11.3654 31.9705H13.5688C13.7891 31.9705 14.0094 31.7502 14.0094 31.5298V25.8451C14.0094 24.0824 12.6654 22.7163 10.9247 22.7163ZM13.5687 31.5078L13.5467 31.5298H11.3874L11.3654 26.7926C11.3654 26.2638 11.2332 25.8672 10.9467 25.5807C10.6162 25.2502 10.1755 25.0739 9.71282 25.0739C8.78739 25.096 8.06028 25.8451 8.06028 26.8146V31.5298H5.63654V23.3773H7.81789L7.83992 23.3994V24.7875L8.43483 24.1926L8.45686 24.1705C8.89755 23.5536 9.66872 23.157 10.484 23.157H10.9467C12.423 23.157 13.5687 24.3468 13.5687 25.8451V31.5078Z" fill="#17254E"/>
</svg>
