<svg width="11" height="14" viewBox="0 0 11 14" fill="none" xmlns="http://www.w3.org/2000/svg">
<path d="M7.875 7V8.75H2.625V7H7.875ZM10.3086 2.87109C10.4362 2.9987 10.5 3.15365 10.5 3.33594V3.5H7V0H7.16406C7.34635 0 7.5013 0.0638021 7.62891 0.191406L10.3086 2.87109ZM6.125 3.71875C6.125 3.90104 6.1888 4.05599 6.31641 4.18359C6.44401 4.3112 6.59896 4.375 6.78125 4.375H10.5V13.3438C10.5 13.526 10.4362 13.681 10.3086 13.8086C10.181 13.9362 10.026 14 9.84375 14H0.65625C0.473958 14 0.31901 13.9362 0.191406 13.8086C0.0638021 13.681 0 13.526 0 13.3438V0.65625C0 0.473958 0.0638021 0.31901 0.191406 0.191406C0.31901 0.0638021 0.473958 0 0.65625 0H6.125V3.71875ZM1.75 1.96875V2.40625C1.75 2.55208 1.82292 2.625 1.96875 2.625H4.15625C4.30208 2.625 4.375 2.55208 4.375 2.40625V1.96875C4.375 1.82292 4.30208 1.75 4.15625 1.75H1.96875C1.82292 1.75 1.75 1.82292 1.75 1.96875ZM1.75 3.71875V4.15625C1.75 4.30208 1.82292 4.375 1.96875 4.375H4.15625C4.30208 4.375 4.375 4.30208 4.375 4.15625V3.71875C4.375 3.57292 4.30208 3.5 4.15625 3.5H1.96875C1.82292 3.5 1.75 3.57292 1.75 3.71875ZM8.75 12.0312V11.5938C8.75 11.4479 8.67708 11.375 8.53125 11.375H6.34375C6.19792 11.375 6.125 11.4479 6.125 11.5938V12.0312C6.125 12.1771 6.19792 12.25 6.34375 12.25H8.53125C8.67708 12.25 8.75 12.1771 8.75 12.0312ZM8.75 6.5625C8.75 6.4349 8.70443 6.33464 8.61328 6.26172C8.54036 6.17057 8.4401 6.125 8.3125 6.125H2.1875C2.0599 6.125 1.95052 6.17057 1.85938 6.26172C1.78646 6.33464 1.75 6.4349 1.75 6.5625V9.1875C1.75 9.3151 1.78646 9.42448 1.85938 9.51562C1.95052 9.58854 2.0599 9.625 2.1875 9.625H8.3125C8.4401 9.625 8.54036 9.58854 8.61328 9.51562C8.70443 9.42448 8.75 9.3151 8.75 9.1875V6.5625Z" fill="black"/>
</svg>
