<svg width="38" height="38" viewBox="0 0 38 38" fill="none" xmlns="http://www.w3.org/2000/svg">
<g clip-path="url(#clip0_1_666)">
<path d="M32.6798 35.34C32.1732 32.8067 31.7087 30.4844 31.2865 28.3733L31.0332 27.2333C30.7798 26.0511 30.1465 25.2067 29.1332 24.7C28.8798 24.5311 28.6265 24.4044 28.3732 24.32L24.0665 22.8L22.6732 21.9133V20.7733C23.6865 20.1822 24.4887 19.4011 25.0798 18.43C25.6709 17.4589 26.0509 16.4244 26.2198 15.3267C27.0643 15.3267 27.7187 15.01 28.1832 14.3767C28.6476 13.7433 28.7109 13.0467 28.3732 12.2867V7.85333C28.3732 6.41778 28.0354 5.23556 27.3598 4.30667C27.022 3.8 26.5576 3.42 25.9665 3.16667C24.6998 1.56222 22.9687 0.57 20.7732 0.189999C18.5776 -0.189999 16.5087 0.084446 14.5665 1.01333C13.9754 1.35111 13.3843 1.77333 12.7932 2.28C12.7087 2.36444 12.6454 2.49111 12.6032 2.66C12.5609 2.82889 12.6032 2.95555 12.7298 3.04C12.8565 3.12444 12.9832 3.18778 13.1098 3.23C13.2365 3.27222 13.3843 3.20889 13.5532 3.04C14.7354 2.11111 16.0865 1.52 17.6065 1.26667C19.1265 1.01333 20.562 1.14 21.9132 1.64667C23.2643 2.15334 24.362 2.91333 25.2065 3.92667C25.2909 4.01111 25.3754 4.05333 25.4598 4.05333C25.7976 4.22222 26.0932 4.47556 26.3465 4.81334C26.9376 5.57333 27.2332 6.58667 27.2332 7.85333V11.2733C26.8954 11.1889 26.5576 11.1467 26.2198 11.1467V9.24667C26.2198 9.07778 26.1354 8.90889 25.9665 8.74C25.7976 8.57111 25.6287 8.44444 25.4598 8.36C24.6998 8.36 24.1087 7.98 23.6865 7.22C23.5176 6.88222 23.2643 6.69222 22.9265 6.65C22.5887 6.60778 22.2932 6.71333 22.0398 6.96667C20.8576 7.89556 19.5487 8.48667 18.1132 8.74C17.0154 8.99333 15.8754 9.03556 14.6932 8.86667C13.9332 8.78222 13.2576 8.95111 12.6665 9.37333C12.0754 9.79556 11.7376 10.3867 11.6532 11.1467C11.2309 11.1467 10.8509 11.1889 10.5132 11.2733V10.64C10.5132 9.45778 10.5554 8.57111 10.6398 7.98C10.8932 6.88222 11.3154 5.86889 11.9065 4.94C11.9909 4.77111 12.012 4.62333 11.9698 4.49667C11.9276 4.37 11.8432 4.26445 11.7165 4.18C11.5898 4.09555 11.4632 4.07444 11.3365 4.11667C11.2098 4.15889 11.1043 4.22222 11.0198 4.30667C10.2598 5.40445 9.79538 6.58667 9.62649 7.85333C9.4576 8.61333 9.41538 9.62667 9.49982 10.8933L9.37316 12.2867C9.03538 13.0467 9.11982 13.7433 9.62649 14.3767C10.1332 15.01 10.8087 15.3267 11.6532 15.3267C11.822 16.9311 12.4554 18.3244 13.5532 19.5067L13.6798 19.6333C14.1865 20.14 14.7354 20.5622 15.3265 20.9V21.9133L13.9332 22.8L10.8932 23.94C9.62649 24.3622 8.90871 24.6156 8.73982 24.7L8.61316 24.8267C7.76871 25.3333 7.21982 26.0511 6.96649 26.98L5.31982 35.34C5.31982 35.5933 5.31982 35.8467 5.31982 36.1C5.40427 36.6911 5.63649 37.1556 6.01649 37.4933C6.39649 37.8311 6.92427 38 7.59982 38H22.9265C23.0954 38 23.222 37.9367 23.3065 37.81C23.3909 37.6833 23.4332 37.5567 23.4332 37.43C23.4332 37.3033 23.3909 37.1767 23.3065 37.05C23.222 36.9233 23.0954 36.86 22.9265 36.86H11.5265V31.7933C11.5265 31.6244 11.4632 31.4978 11.3365 31.4133C11.2098 31.3289 11.0832 31.2867 10.9565 31.2867C10.8298 31.2867 10.7032 31.3289 10.5765 31.4133C10.4498 31.4978 10.3865 31.6244 10.3865 31.7933V36.86H7.59982C6.67094 36.86 6.29094 36.4378 6.45982 35.5933L7.72649 29.0067C7.97982 27.8244 8.14871 27.1489 8.23316 26.98V26.8533C8.48649 26.2622 8.95094 25.7978 9.62649 25.46L12.0332 24.7L13.4265 27.1067C13.4265 27.2756 13.5109 27.3811 13.6798 27.4233C13.8487 27.4656 13.9965 27.4444 14.1232 27.36C14.2498 27.2756 14.3343 27.17 14.3765 27.0433C14.4187 26.9167 14.3976 26.7689 14.3132 26.6L13.0465 24.32L13.9332 24.0667L18.3665 32.3C18.5354 32.4689 18.7465 32.5533 18.9998 32.5533C19.2532 32.5533 19.422 32.4689 19.5065 32.3L24.0665 24.0667L24.9532 24.32L20.3932 32.68C20.0554 33.1867 19.5909 33.44 18.9998 33.44C18.4087 33.44 17.9443 33.1867 17.6065 32.68L15.5798 28.88C15.4954 28.7956 15.3898 28.7322 15.2632 28.69C15.1365 28.6478 14.9887 28.6478 14.8198 28.69C14.6509 28.7322 14.5454 28.8378 14.5032 29.0067C14.4609 29.1756 14.482 29.3022 14.5665 29.3867L16.5932 33.1867C16.9309 33.7778 17.4165 34.1789 18.0498 34.39C18.6832 34.6011 19.3165 34.6011 19.9498 34.39C20.5832 34.1789 21.0687 33.7778 21.4065 33.1867L25.9665 24.7L28.1198 25.46L29.0065 25.84C29.4287 26.2622 29.7243 26.7267 29.8932 27.2333L31.5398 35.8467C31.6243 36.5222 31.2443 36.86 30.3998 36.86H27.6132V31.7933C27.6132 31.6244 27.5498 31.4978 27.4232 31.4133C27.2965 31.3289 27.1698 31.2867 27.0432 31.2867C26.9165 31.2867 26.7898 31.3289 26.6632 31.4133C26.5365 31.4978 26.4732 31.6244 26.4732 31.7933V36.86H25.4598C25.2909 36.86 25.1643 36.9233 25.0798 37.05C24.9954 37.1767 24.9532 37.3033 24.9532 37.43C24.9532 37.5567 24.9954 37.6833 25.0798 37.81C25.1643 37.9367 25.2909 38 25.4598 38H30.3998C31.0754 38 31.6032 37.8311 31.9832 37.4933C32.3632 37.1556 32.5954 36.6911 32.6798 36.1C32.6798 35.8467 32.6798 35.5933 32.6798 35.34ZM26.2198 12.2867C26.5576 12.2022 26.8532 12.2656 27.1065 12.4767C27.3598 12.6878 27.4865 12.9411 27.4865 13.2367C27.4865 13.5322 27.3598 13.7644 27.1065 13.9333C26.8532 14.1022 26.5576 14.1867 26.2198 14.1867V12.2867ZM11.5265 14.1867C11.1887 14.1867 10.9143 14.1022 10.7032 13.9333C10.492 13.7644 10.3865 13.5322 10.3865 13.2367C10.3865 12.9411 10.492 12.6878 10.7032 12.4767C10.9143 12.2656 11.1887 12.2022 11.5265 12.2867V14.1867ZM14.5665 10.0067C15.9176 10.1756 17.1843 10.1333 18.3665 9.88C19.9709 9.54222 21.4065 8.82445 22.6732 7.72667C23.2643 8.74 24.0665 9.33111 25.0798 9.5V11.5267L24.4465 11.9067C24.1932 11.4844 23.8132 11.2733 23.3065 11.2733H20.7732C20.4354 11.2733 20.1609 11.3367 19.9498 11.4633C19.7387 11.59 19.5487 11.8222 19.3798 12.16H18.3665C18.282 11.8222 18.1132 11.59 17.8598 11.4633C17.6065 11.3367 17.3532 11.2733 17.0998 11.2733H14.4398C13.9332 11.2733 13.5532 11.4844 13.2998 11.9067L12.6665 11.5267C12.6665 11.02 12.8565 10.6189 13.2365 10.3233C13.6165 10.0278 14.0598 9.92222 14.5665 10.0067ZM23.6865 12.6667V13.8067C23.6865 14.06 23.602 14.2711 23.4332 14.44C23.2643 14.6089 23.0532 14.6933 22.7998 14.6933H21.2798C21.0265 14.6933 20.8154 14.6089 20.6465 14.44C20.4776 14.2711 20.3932 14.06 20.3932 13.8067V12.6667C20.3932 12.4133 20.5198 12.2867 20.7732 12.2867H23.3065C23.5598 12.2867 23.6865 12.4133 23.6865 12.6667ZM17.3532 12.6667V13.8067C17.3532 14.06 17.2687 14.2711 17.0998 14.44C16.9309 14.6089 16.7198 14.6933 16.4665 14.6933H15.0732C14.8198 14.6933 14.6087 14.6089 14.4398 14.44C14.2709 14.2711 14.1865 14.06 14.1865 13.8067V12.6667C14.1865 12.4133 14.2709 12.2867 14.4398 12.2867H17.0998C17.2687 12.2867 17.3532 12.4133 17.3532 12.6667ZM14.1865 18.62C13.5109 17.7756 13.0465 16.8889 12.7932 15.96C12.7087 15.3689 12.6665 14.5667 12.6665 13.5533V12.7933L13.0465 13.0467V13.8067C13.0465 14.3133 13.2365 14.7567 13.6165 15.1367C13.9965 15.5167 14.482 15.7067 15.0732 15.7067H16.4665C17.0576 15.7067 17.5432 15.5167 17.9232 15.1367C18.3032 14.7567 18.4932 14.3133 18.4932 13.8067V13.1733H19.2532V13.8067C19.2532 14.3133 19.4643 14.7567 19.8865 15.1367C20.3087 15.5167 20.7732 15.7067 21.2798 15.7067H22.7998C23.3065 15.7067 23.7498 15.5167 24.1298 15.1367C24.5098 14.7567 24.6998 14.3133 24.6998 13.8067V13.0467L25.0798 12.7933V14.44C25.0798 16.1289 24.4887 17.5856 23.3065 18.81C22.1243 20.0344 20.6465 20.6889 18.8732 20.7733C18.4509 20.7733 18.0287 20.7311 17.6065 20.6467L17.2265 20.52C16.0443 20.1822 15.0309 19.5489 14.1865 18.62ZM18.9998 24.8267L16.4665 21.9133V21.4067C17.6487 21.8289 18.8309 21.9556 20.0132 21.7867L20.7732 21.5333L21.5332 21.4067V21.9133L18.9998 24.8267ZM19.6332 26.7267L19.3798 27.2333H18.6198L18.3665 26.7267L18.9998 26.3467L19.6332 26.7267ZM17.4798 28.2467L17.2265 27.6133L17.4798 27.4867L17.7332 27.8667L17.4798 28.2467ZM16.5932 26.6L14.9465 23.56L15.8332 22.9267L18.1132 25.5867L16.5932 26.6ZM18.9998 31.0333L18.2398 29.64L18.6198 28.3733H19.3798L19.7598 29.64L18.9998 31.0333ZM20.5198 28.2467L20.2665 27.8667L20.5198 27.4867L20.7732 27.6133L20.5198 28.2467ZM21.4065 26.6C20.9843 26.3467 20.4776 26.0089 19.8865 25.5867L22.1665 22.9267L23.0532 23.56L21.4065 26.6Z" fill="#0E2A46"/>
</g>
<defs>
<clipPath id="clip0_1_666">
<rect width="38" height="38" fill="white" transform="matrix(1 0 0 -1 0 38)"/>
</clipPath>
</defs>
</svg>
