<svg width="38" height="38" viewBox="0 0 38 38" fill="none" xmlns="http://www.w3.org/2000/svg">
<path d="M31.5398 23.94C31.962 23.4334 32.2998 22.8423 32.5531 22.1667C32.8065 21.4911 32.9331 20.8156 32.9331 20.14C32.9331 19.0423 32.5531 18.1134 31.7931 17.3534C31.0331 16.5934 30.1042 16.2134 29.0065 16.2134C27.9087 16.2134 26.9798 16.5934 26.2198 17.3534C25.4598 18.1134 25.0798 19.0634 25.0798 20.2034C25.0798 21.3434 25.3753 22.3778 25.9665 23.3067L26.3465 23.94C25.4176 23.94 24.5731 24.2356 23.8131 24.8267C23.4753 24.7423 23.1376 24.7 22.7998 24.7H22.1665C22.5887 24.3623 22.9265 23.94 23.1798 23.4334C24.0242 22.0823 24.4465 20.52 24.4465 18.7467C24.4465 17.8178 24.2142 16.9311 23.7498 16.0867C23.2853 15.2423 22.6309 14.5667 21.7865 14.06C20.942 13.5534 20.0131 13.3 18.9998 13.3C17.9865 13.3 17.0576 13.5534 16.2131 14.06C15.3687 14.5667 14.7142 15.2423 14.2498 16.0867C13.7853 16.9311 13.5531 17.8178 13.5531 18.7467C13.5531 20.52 13.9753 22.0823 14.8198 23.4334C15.0731 23.8556 15.4109 24.2778 15.8331 24.7H15.1998C14.862 24.7 14.5242 24.7423 14.1865 24.8267C13.4265 24.2356 12.582 23.94 11.6531 23.94L12.0331 23.3067C12.6242 22.3778 12.9198 21.3434 12.9198 20.2034C12.9198 19.0634 12.5398 18.1134 11.7798 17.3534C11.0198 16.5934 10.0909 16.2134 8.99312 16.2134C7.89534 16.2134 6.96645 16.5934 6.20645 17.3534C5.44645 18.1134 5.06645 19.0423 5.06645 20.14C5.06645 20.8156 5.19312 21.4911 5.44645 22.1667C5.69979 22.8423 6.03756 23.4334 6.45978 23.94C5.27756 23.94 4.28534 24.32 3.48312 25.08C2.6809 25.84 2.27979 26.7689 2.27979 27.8667V32.4267C2.27979 32.5956 2.32201 32.7434 2.40645 32.87C2.4909 32.9967 2.61756 33.06 2.78645 33.06H9.37312V36.86C9.37312 37.0289 9.43645 37.1556 9.56312 37.24C9.68979 37.3245 9.83756 37.3667 10.0065 37.3667H27.9931C28.162 37.3667 28.3098 37.3245 28.4365 37.24C28.5631 37.1556 28.6265 37.0289 28.6265 36.86V33.06H35.2131C35.382 33.06 35.5087 32.9967 35.5931 32.87C35.6776 32.7434 35.7198 32.5956 35.7198 32.4267V27.8667C35.7198 26.7689 35.3187 25.84 34.5165 25.08C33.7142 24.32 32.722 23.94 31.5398 23.94ZM26.2198 20.14C26.2198 19.38 26.4942 18.7256 27.0431 18.1767C27.592 17.6278 28.2465 17.3534 29.0065 17.3534C29.7665 17.3534 30.4209 17.6278 30.9698 18.1767C31.5187 18.7256 31.7931 19.4223 31.7931 20.2667C31.7931 21.1111 31.582 21.8711 31.1598 22.5467C30.6531 23.4756 29.9353 23.94 29.0065 23.94C28.0776 23.94 27.3598 23.4756 26.8531 22.5467C26.4309 21.8711 26.2198 21.0689 26.2198 20.14ZM18.9998 14.5667C20.182 14.5667 21.1953 14.9678 22.0398 15.77C22.8842 16.5723 23.3065 17.5645 23.3065 18.7467V18.8734C22.3776 18.7889 21.5753 18.62 20.8998 18.3667C20.0553 18.0289 19.1687 17.5223 18.2398 16.8467C18.0709 16.6778 17.8598 16.6778 17.6065 16.8467L14.6931 18.4934C14.7776 17.3956 15.242 16.4667 16.0865 15.7067C16.9309 14.9467 17.902 14.5667 18.9998 14.5667ZM15.8331 22.8C15.3265 21.9556 14.9887 20.9845 14.8198 19.8867L17.8598 17.9867C18.7887 18.6623 19.7176 19.1689 20.6465 19.5067C21.322 19.76 22.1665 19.9711 23.1798 20.14C23.0109 21.1534 22.6731 22.04 22.1665 22.8C21.4065 24.0667 20.3509 24.7 18.9998 24.7C17.6487 24.7 16.5931 24.0667 15.8331 22.8ZM6.20645 20.14C6.20645 19.38 6.4809 18.7256 7.02979 18.1767C7.57867 17.6278 8.23312 17.3534 8.99312 17.3534C9.75312 17.3534 10.4076 17.6278 10.9565 18.1767C11.5053 18.7256 11.7798 19.4223 11.7798 20.2667C11.7798 21.1111 11.5687 21.8711 11.1465 22.5467C10.6398 23.4756 9.92201 23.94 8.99312 23.94C8.06423 23.94 7.34645 23.4756 6.83979 22.5467C6.41756 21.8711 6.20645 21.0689 6.20645 20.14ZM3.41979 31.92V27.8667C3.41979 27.1067 3.71534 26.4734 4.30645 25.9667C4.89756 25.46 5.61534 25.2067 6.45978 25.2067H11.6531C11.9909 25.2067 12.2865 25.2489 12.5398 25.3334C11.6109 25.7556 10.8509 26.41 10.2598 27.2967C9.66867 28.1834 9.37312 29.1334 9.37312 30.1467V31.92H3.41979ZM27.4865 36.2267H24.4465V32.5534C24.4465 32.3845 24.3831 32.2367 24.2565 32.11C24.1298 31.9834 23.982 31.92 23.8131 31.92C23.6442 31.92 23.5176 31.9834 23.4331 32.11C23.3487 32.2367 23.3065 32.3845 23.3065 32.5534V36.2267H14.6931V32.5534C14.6931 32.3845 14.6509 32.2367 14.5665 32.11C14.482 31.9834 14.3553 31.92 14.1865 31.92C14.0176 31.92 13.8698 31.9834 13.7431 32.11C13.6165 32.2367 13.5531 32.3845 13.5531 32.5534V36.2267H10.5131V30.1467C10.5131 28.9645 10.9776 27.9511 11.9065 27.1067C12.8353 26.2623 13.9331 25.84 15.1998 25.84H22.7998C24.0665 25.84 25.1642 26.2623 26.0931 27.1067C27.022 27.9511 27.4865 28.9645 27.4865 30.1467V36.2267ZM34.5798 31.92H28.6265V30.1467C28.6265 29.1334 28.3309 28.1834 27.7398 27.2967C27.1487 26.41 26.3887 25.7556 25.4598 25.3334C25.7131 25.2489 26.0087 25.2067 26.3465 25.2067H31.5398C32.3842 25.2067 33.102 25.46 33.6931 25.9667C34.2842 26.4734 34.5798 27.1067 34.5798 27.8667V31.92ZM15.7065 7.7267L15.1998 10.8934C15.1998 11.1467 15.2842 11.3367 15.4531 11.4634C15.622 11.59 15.8331 11.6111 16.0865 11.5267L18.9998 10.0067L21.9131 11.5267C22.1665 11.6111 22.3776 11.59 22.5465 11.4634C22.7153 11.3367 22.7998 11.1467 22.7998 10.8934L22.2931 7.7267L24.5731 5.32003C24.742 5.15115 24.7842 4.96114 24.6998 4.75003C24.6153 4.53892 24.4465 4.39114 24.1931 4.3067L21.0265 3.80003L19.5065 0.8867C19.422 0.717812 19.2531 0.633366 18.9998 0.633366C18.7465 0.633366 18.5776 0.717812 18.4931 0.8867L16.9731 3.80003L13.8065 4.3067C13.5531 4.39114 13.3842 4.53892 13.2998 4.75003C13.2153 4.96114 13.2576 5.15115 13.4265 5.32003L15.7065 7.7267ZM17.4798 4.94003C17.6487 4.85559 17.7753 4.72892 17.8598 4.56003L18.9998 2.4067L20.1398 4.56003C20.2242 4.72892 20.3509 4.85559 20.5198 4.94003L22.9265 5.32003L21.2798 7.09337C21.1109 7.17781 21.0265 7.3467 21.0265 7.60003L21.4065 9.88003L19.2531 8.8667C19.0842 8.78226 18.9153 8.78226 18.7465 8.8667L16.5931 9.88003L16.9731 7.60003C16.9731 7.3467 16.8887 7.17781 16.7198 7.09337L15.0731 5.32003L17.4798 4.94003ZM4.68645 8.61337L4.30645 10.8934C4.30645 11.1467 4.41201 11.3367 4.62312 11.4634C4.83423 11.59 5.02423 11.6111 5.19312 11.5267L7.21979 10.5134L9.24645 11.5267C9.41534 11.6111 9.60534 11.59 9.81645 11.4634C10.0276 11.3367 10.1331 11.1467 10.1331 10.8934L9.75312 8.61337L11.2731 7.09337C11.442 6.92448 11.5053 6.71337 11.4631 6.46003C11.4209 6.2067 11.2731 6.08003 11.0198 6.08003L8.73979 5.70003L7.72645 3.67337C7.64201 3.50448 7.47312 3.42003 7.21979 3.42003C6.96645 3.42003 6.79756 3.50448 6.71312 3.67337L5.69979 5.70003L3.41979 6.08003C3.16645 6.08003 3.01867 6.2067 2.97645 6.46003C2.93423 6.71337 2.99756 6.92448 3.16645 7.09337L4.68645 8.61337ZM6.07979 6.84003C6.33312 6.75559 6.50201 6.62892 6.58645 6.46003L7.21979 5.19337L7.85312 6.46003C7.93756 6.62892 8.06423 6.75559 8.23312 6.84003L9.62645 7.09337L8.73979 8.1067C8.5709 8.19114 8.48645 8.31781 8.48645 8.4867L8.73979 9.88003L7.47312 9.37337C7.30423 9.28892 7.13534 9.28892 6.96645 9.37337L5.69979 9.88003L5.95312 8.4867C5.95312 8.31781 5.86867 8.19114 5.69979 8.1067L4.81312 7.09337L6.07979 6.84003ZM28.2465 8.61337L27.8665 10.8934C27.8665 11.1467 27.972 11.3367 28.1831 11.4634C28.3942 11.59 28.5842 11.6111 28.7531 11.5267L30.7798 10.5134L32.8065 11.5267C32.9753 11.6111 33.1653 11.59 33.3765 11.4634C33.5876 11.3367 33.6931 11.1467 33.6931 10.8934L33.3131 8.61337L34.8331 7.09337C35.002 6.92448 35.0653 6.71337 35.0231 6.46003C34.9809 6.2067 34.8331 6.08003 34.5798 6.08003L32.2998 5.70003L31.2865 3.67337C31.202 3.50448 31.0331 3.42003 30.7798 3.42003C30.5265 3.42003 30.3576 3.50448 30.2731 3.67337L29.2598 5.70003L26.9798 6.08003C26.7265 6.08003 26.5787 6.2067 26.5365 6.46003C26.4942 6.71337 26.5576 6.92448 26.7265 7.09337L28.2465 8.61337ZM29.7665 6.84003C29.9353 6.75559 30.062 6.62892 30.1465 6.46003L30.7798 5.19337L31.4131 6.46003C31.4976 6.62892 31.6665 6.75559 31.9198 6.84003L33.1865 7.09337L32.2998 8.1067C32.1309 8.19114 32.0465 8.31781 32.0465 8.4867L32.2998 9.88003L31.0331 9.37337C30.8642 9.28892 30.6953 9.28892 30.5265 9.37337L29.2598 9.88003L29.5131 8.4867C29.5131 8.31781 29.4287 8.19114 29.2598 8.1067L28.3731 7.09337L29.7665 6.84003Z" fill="#0E2A46"/>
</svg>
