<svg width="168" height="65" viewBox="0 0 168 65" fill="none" xmlns="http://www.w3.org/2000/svg">
<path d="M73.3791 8.52235C78.4861 6.03392 82.5735 4.2647 88.8944 3.31488C94.2074 2.51653 99.6315 2.08046 104.982 1.95268C120.428 1.58384 135.136 4.94475 146.513 9.77884C158.639 14.9309 166.74 22.717 166.094 31.851C165.316 42.8362 151.375 52.0034 133.539 57.1363C110.286 63.8283 81.7383 64.1304 58.5896 61.1288C37.5299 58.3981 11.6525 51.9445 3.59705 40.1835C-3.42069 29.9381 12.0777 18.2084 27.5463 11.669C40.3658 6.24972 55.7075 2.97596 70.8049 4.09028C81.9407 4.91221 93.2195 6.91074 102.467 10.0493C112.882 13.5843 120.151 18.7015 127.875 23.7721" stroke="#704FE6" stroke-width="3" stroke-linecap="round"/>
</svg>
