<svg width="13" height="14" viewBox="0 0 13 14" fill="none" xmlns="http://www.w3.org/2000/svg">
<path d="M8.58594 5.98828C7.91146 6.66276 7.09115 7 6.125 7C5.15885 7 4.32943 6.66276 3.63672 5.98828C2.96224 5.29557 2.625 4.46615 2.625 3.5C2.625 2.53385 2.96224 1.71354 3.63672 1.03906C4.32943 0.346354 5.15885 0 6.125 0C7.09115 0 7.91146 0.346354 8.58594 1.03906C9.27865 1.71354 9.625 2.53385 9.625 3.5C9.625 4.46615 9.27865 5.29557 8.58594 5.98828ZM8.58594 7.875C9.58854 7.875 10.4453 8.23958 11.1562 8.96875C11.8854 9.67969 12.25 10.5365 12.25 11.5391V12.6875C12.25 13.0521 12.1224 13.362 11.8672 13.6172C11.612 13.8724 11.3021 14 10.9375 14H1.3125C0.947917 14 0.638021 13.8724 0.382812 13.6172C0.127604 13.362 0 13.0521 0 12.6875V11.5391C0 10.5365 0.355469 9.67969 1.06641 8.96875C1.79557 8.23958 2.66146 7.875 3.66406 7.875H4.12891C4.76693 8.16667 5.43229 8.3125 6.125 8.3125C6.81771 8.3125 7.48307 8.16667 8.12109 7.875H8.58594Z" fill="black"/>
</svg>
