<svg width="13" height="50" viewBox="0 0 13 50" fill="none" xmlns="http://www.w3.org/2000/svg">
<path d="M8.51017 24.8122L5.63818 23.2408C5.47304 23.1504 5.27785 23.1538 5.11599 23.2497C4.95402 23.3457 4.85742 23.5153 4.85742 23.7035V26.8194C4.85742 27.0068 4.95343 27.1761 5.1143 27.2722C5.19831 27.3224 5.29144 27.3476 5.38477 27.3476C5.47026 27.3476 5.55596 27.3264 5.63481 27.284L8.5069 25.7396C8.67739 25.6479 8.78381 25.4706 8.78461 25.2769C8.7853 25.0832 8.68017 24.9052 8.51017 24.8122ZM5.61923 26.4275V24.0987L7.76572 25.2732L5.61923 26.4275Z" fill="#17254E"/>
<path d="M12.9136 22.7941L12.913 22.7882C12.902 22.6835 12.7924 21.7528 12.3399 21.2794C11.8169 20.7226 11.224 20.655 10.9389 20.6226C10.9153 20.6199 10.8936 20.6174 10.8743 20.6148L10.8516 20.6124C9.13297 20.4875 6.53749 20.4704 6.51151 20.4703L6.50923 20.4702L6.50695 20.4703C6.48096 20.4704 3.88548 20.4875 2.1514 20.6124L2.12849 20.6148C2.11004 20.6173 2.08971 20.6196 2.06759 20.6222C1.78571 20.6547 1.19916 20.7224 0.674685 21.2994C0.243742 21.7677 0.11917 22.6785 0.106376 22.7808L0.104888 22.7941C0.10102 22.8377 0.00927734 23.8742 0.00927734 24.9148V25.8876C0.00927734 26.9282 0.10102 27.9648 0.104888 28.0084L0.105582 28.0149C0.116592 28.1179 0.226088 29.0316 0.67647 29.5051C1.16821 30.0433 1.78998 30.1145 2.12442 30.1528C2.17728 30.1588 2.22281 30.164 2.25385 30.1695L2.2839 30.1736C3.27621 30.268 6.38743 30.3146 6.51934 30.3164L6.52331 30.3165L6.52728 30.3164C6.55326 30.3163 9.14864 30.2993 10.8673 30.1743L10.89 30.1719C10.9117 30.1691 10.9361 30.1665 10.9629 30.1637C11.2432 30.134 11.8265 30.0722 12.3438 29.5031C12.7747 29.0346 12.8994 28.1238 12.9121 28.0216L12.9136 28.0083C12.9174 27.9647 13.0093 26.9282 13.0093 25.8876V24.9148C13.0092 23.8742 12.9174 22.8378 12.9136 22.7941ZM12.2474 25.8876C12.2474 26.8508 12.1633 27.8427 12.1553 27.9337C12.123 28.1845 11.9916 28.7608 11.7816 28.989C11.4579 29.3452 11.1253 29.3805 10.8825 29.4062C10.8532 29.4092 10.826 29.4122 10.8014 29.4153C9.13912 29.5355 6.64163 29.5539 6.52658 29.5546C6.39755 29.5527 3.33185 29.5058 2.36979 29.4165C2.3205 29.4084 2.26724 29.4023 2.2111 29.3959C1.92635 29.3633 1.53657 29.3187 1.23685 28.989L1.2298 28.9815C1.02351 28.7665 0.89586 28.2277 0.863427 27.9367C0.857377 27.8679 0.771089 26.8642 0.771089 25.8876V24.9148C0.771089 23.9528 0.854997 22.9619 0.86313 22.869C0.901711 22.5736 1.03561 22.0322 1.23685 21.8134C1.57049 21.4465 1.92229 21.4058 2.15497 21.3789C2.17718 21.3763 2.19791 21.374 2.21705 21.3715C3.90353 21.2507 6.41897 21.2327 6.50923 21.232C6.59948 21.2326 9.11403 21.2507 10.7855 21.3715C10.8061 21.3741 10.8285 21.3766 10.8526 21.3794C11.0919 21.4067 11.4536 21.4479 11.7856 21.802L11.7887 21.8053C11.9949 22.0202 12.1226 22.5685 12.155 22.8653C12.1608 22.9303 12.2474 23.9361 12.2474 24.9148V25.8876Z" fill="#17254E"/>
</svg>
