<svg width="15" height="15" viewBox="0 0 15 15" fill="none" xmlns="http://www.w3.org/2000/svg">
<path d="M7.4705 3.61914C9.5623 3.61914 11.2889 5.3457 11.2889 7.4375C11.2889 9.5625 9.5623 11.2559 7.4705 11.2559C5.3455 11.2559 3.65214 9.5625 3.65214 7.4375C3.65214 5.3457 5.3455 3.61914 7.4705 3.61914ZM7.4705 9.92773C8.83183 9.92773 9.92753 8.83203 9.92753 7.4375C9.92753 6.07617 8.83183 4.98047 7.4705 4.98047C6.07597 4.98047 4.98027 6.07617 4.98027 7.4375C4.98027 8.83203 6.10917 9.92773 7.4705 9.92773ZM12.3182 3.48633C12.3182 3.98438 11.9197 4.38281 11.4217 4.38281C10.9236 4.38281 10.5252 3.98438 10.5252 3.48633C10.5252 2.98828 10.9236 2.58984 11.4217 2.58984C11.9197 2.58984 12.3182 2.98828 12.3182 3.48633ZM14.8416 4.38281C14.908 5.61133 14.908 9.29688 14.8416 10.5254C14.7752 11.7207 14.5096 12.75 13.6463 13.6465C12.783 14.5098 11.7205 14.7754 10.5252 14.8418C9.29667 14.9082 5.61112 14.9082 4.38261 14.8418C3.1873 14.7754 2.158 14.5098 1.26152 13.6465C0.398234 12.75 0.132609 11.7207 0.0662031 10.5254C-0.000203133 9.29688 -0.000203133 5.61133 0.0662031 4.38281C0.132609 3.1875 0.398234 2.125 1.26152 1.26172C2.158 0.398438 3.1873 0.132812 4.38261 0.0664062C5.61112 0 9.29667 0 10.5252 0.0664062C11.7205 0.132812 12.783 0.398438 13.6463 1.26172C14.5096 2.125 14.7752 3.1875 14.8416 4.38281ZM13.2478 11.8203C13.6463 10.8574 13.5467 8.5332 13.5467 7.4375C13.5467 6.375 13.6463 4.05078 13.2478 3.05469C12.9822 2.42383 12.4842 1.89258 11.8533 1.66016C10.8572 1.26172 8.533 1.36133 7.4705 1.36133C6.3748 1.36133 4.05058 1.26172 3.08769 1.66016C2.42362 1.92578 1.92558 2.42383 1.65995 3.05469C1.26152 4.05078 1.36112 6.375 1.36112 7.4375C1.36112 8.5332 1.26152 10.8574 1.65995 11.8203C1.92558 12.4844 2.42362 12.9824 3.08769 13.248C4.05058 13.6465 6.3748 13.5469 7.4705 13.5469C8.533 13.5469 10.8572 13.6465 11.8533 13.248C12.4842 12.9824 13.0154 12.4844 13.2478 11.8203Z" fill="#704FE6"/>
<a href="https://www.figma.com/design/Nx4sNsAeWJfmVVOXuDSmxJ?node-id=2-2">
<rect fill="black" fill-opacity="0" x="0.18925" y="-1.275" width="14.875" height="19.55"/>
</a>
</svg>
