<svg width="17" height="14" viewBox="0 0 17 14" fill="none" xmlns="http://www.w3.org/2000/svg">
<path d="M15.24 3.41992C15.24 3.58594 15.24 3.71875 15.24 3.88477C15.24 8.5 11.7537 13.7793 5.34551 13.7793C3.35332 13.7793 1.52715 13.2148 -0.00019455 12.2188C0.26543 12.252 0.531055 12.2852 0.829884 12.2852C2.45684 12.2852 3.95098 11.7207 5.14629 10.791C3.61895 10.7578 2.32402 9.76172 1.89238 8.36719C2.12481 8.40039 2.32402 8.43359 2.55645 8.43359C2.85527 8.43359 3.18731 8.36719 3.45293 8.30078C1.85918 7.96875 0.663868 6.57422 0.663868 4.88086V4.84766C1.12871 5.11328 1.69316 5.24609 2.25762 5.2793C1.29473 4.64844 0.697071 3.58594 0.697071 2.39062C0.697071 1.72656 0.863087 1.12891 1.16191 0.630859C2.88848 2.72266 5.47832 4.11719 8.36699 4.2832C8.30059 4.01758 8.26738 3.75195 8.26738 3.48633C8.26738 1.56055 9.82793 0 11.7537 0C12.7498 0 13.6463 0.398438 14.3104 1.0957C15.074 0.929688 15.8377 0.630859 16.5018 0.232422C16.2361 1.0625 15.7049 1.72656 14.9744 2.1582C15.6717 2.0918 16.3689 1.89258 16.9666 1.62695C16.5018 2.32422 15.9041 2.92188 15.24 3.41992Z" fill="#704FE6"/>
<a href="https://www.figma.com/design/Nx4sNsAeWJfmVVOXuDSmxJ?node-id=2-2">
<rect fill="black" fill-opacity="0" x="0.200001" y="-1.275" width="17" height="19.55"/>
</a>
</svg>
